<?xml version="1.0" encoding="UTF-8" standalone="no"?>
<!DOCTYPE svg PUBLIC "-//W3C//DTD SVG 1.1//EN"
 "http://www.w3.org/Graphics/SVG/1.1/DTD/svg11.dtd">
<!-- Generated by graphviz version 8.0.5 (20230430.1635)
 -->
<!-- Title: RPSFW Pages: 1 -->
<svg width="1080pt" height="1041pt"
 viewBox="0.00 0.00 1080.00 1041.33" xmlns="http://www.w3.org/2000/svg" xmlns:xlink="http://www.w3.org/1999/xlink">
<g id="graph0" class="graph" transform="scale(3.62457 3.62457) rotate(0) translate(4 283.3)">
<title>RPSFW</title>
<!-- water -->
<g id="node1" class="node">
<title>water</title>
<ellipse fill="#89bcbc" stroke="#89bcbc" cx="36" cy="-164.12" rx="36" ry="36"/>
<text text-anchor="middle" x="36" y="-158.69" font-family="Times New Roman,serif" font-size="14.00">water</text>
</g>
<!-- fire -->
<g id="node5" class="node">
<title>fire</title>
<ellipse fill="#bc8989" stroke="#bc8989" cx="253.97" cy="-164.12" rx="36" ry="36"/>
<text text-anchor="middle" x="253.97" y="-158.69" font-family="Times New Roman,serif" font-size="14.00">fire</text>
</g>
<!-- water&#45;&gt;fire -->
<g id="edge1" class="edge">
<title>water&#45;&gt;fire</title>
<path fill="none" stroke="#89bcbc" stroke-width="2" d="M72.48,-164.12C109.37,-164.12 166.54,-164.12 206.84,-164.12"/>
<polygon fill="#89bcbc" stroke="#89bcbc" stroke-width="2" points="204.73,-167.62 214.73,-164.12 204.73,-160.62 204.73,-167.62"/>
</g>
<!-- rock -->
<g id="node2" class="node">
<title>rock</title>
<ellipse fill="#a5bc89" stroke="#a5bc89" cx="212.34" cy="-36" rx="36" ry="36"/>
<text text-anchor="middle" x="212.34" y="-30.58" font-family="Times New Roman,serif" font-size="14.00">rock</text>
</g>
<!-- rock&#45;&gt;water -->
<g id="edge5" class="edge">
<title>rock&#45;&gt;water</title>
<path fill="none" stroke="#a5bc89" stroke-width="2" d="M182.82,-57.44C152.98,-79.13 106.73,-112.73 74.13,-136.42"/>
<polygon fill="#a5bc89" stroke="#a5bc89" stroke-width="2" points="73.35,-133.11 67.32,-141.82 77.46,-138.77 73.35,-133.11"/>
</g>
<!-- scissors -->
<g id="node3" class="node">
<title>scissors</title>
<ellipse fill="#a589bc" stroke="#a589bc" cx="77.63" cy="-36" rx="36" ry="36"/>
<text text-anchor="middle" x="77.63" y="-30.58" font-family="Times New Roman,serif" font-size="14.00">scissors</text>
</g>
<!-- rock&#45;&gt;scissors -->
<g id="edge2" class="edge">
<title>rock&#45;&gt;scissors</title>
<path fill="none" stroke="#a5bc89" stroke-width="2" d="M175.88,-36C160.16,-36 141.57,-36 124.81,-36"/>
<polygon fill="#a5bc89" stroke="#a5bc89" stroke-width="2" points="127.11,-32.5 117.11,-36 127.11,-39.5 127.11,-32.5"/>
</g>
<!-- scissors&#45;&gt;water -->
<g id="edge6" class="edge">
<title>scissors&#45;&gt;water</title>
<path fill="none" stroke="#a589bc" stroke-width="2" d="M66.36,-70.67C61.5,-85.62 55.76,-103.31 50.58,-119.24"/>
<polygon fill="#a589bc" stroke="#a589bc" stroke-width="2" points="47.04,-116.83 47.27,-127.42 53.69,-118.99 47.04,-116.83"/>
</g>
<!-- paper -->
<g id="node4" class="node">
<title>paper</title>
<ellipse fill="#ffffa5" stroke="#ffffa5" cx="144.98" cy="-243.3" rx="36" ry="36"/>
<text text-anchor="middle" x="144.98" y="-237.87" font-family="Times New Roman,serif" font-size="14.00">paper</text>
</g>
<!-- scissors&#45;&gt;paper -->
<g id="edge3" class="edge">
<title>scissors&#45;&gt;paper</title>
<path fill="none" stroke="#a589bc" stroke-width="2" d="M88.9,-70.7C100.3,-105.78 117.97,-160.15 130.42,-198.48"/>
<polygon fill="#a589bc" stroke="#a589bc" stroke-width="2" points="127.37,-198.4 133.78,-206.83 134.02,-196.24 127.37,-198.4"/>
</g>
<!-- paper&#45;&gt;water -->
<g id="edge7" class="edge">
<title>paper&#45;&gt;water</title>
<path fill="none" stroke="#ffffa5" stroke-width="2" d="M115.49,-221.87C102.77,-212.63 87.73,-201.7 74.17,-191.85"/>
<polygon fill="#ffffa5" stroke="#ffffa5" stroke-width="2" points="77.66,-189.61 67.52,-186.56 73.55,-195.27 77.66,-189.61"/>
</g>
<!-- paper&#45;&gt;rock -->
<g id="edge4" class="edge">
<title>paper&#45;&gt;rock</title>
<path fill="none" stroke="#ffffa5" stroke-width="2" d="M156.26,-208.6C167.66,-173.52 185.32,-119.15 197.78,-80.82"/>
<polygon fill="#ffffa5" stroke="#ffffa5" stroke-width="2" points="201.38,-83.06 201.14,-72.46 194.72,-80.89 201.38,-83.06"/>
</g>
<!-- fire&#45;&gt;rock -->
<g id="edge8" class="edge">
<title>fire&#45;&gt;rock</title>
<path fill="none" stroke="#bc8989" stroke-width="2" d="M242.7,-129.45C237.84,-114.49 232.1,-96.81 226.92,-80.87"/>
<polygon fill="#bc8989" stroke="#bc8989" stroke-width="2" points="230.03,-81.13 223.61,-72.7 223.37,-83.29 230.03,-81.13"/>
</g>
<!-- fire&#45;&gt;scissors -->
<g id="edge9" class="edge">
<title>fire&#45;&gt;scissors</title>
<path fill="none" stroke="#bc8989" stroke-width="2" d="M224.45,-142.67C194.61,-120.99 148.36,-87.39 115.75,-63.7"/>
<polygon fill="#bc8989" stroke="#bc8989" stroke-width="2" points="119.09,-61.35 108.95,-58.3 114.98,-67.01 119.09,-61.35"/>
</g>
<!-- fire&#45;&gt;paper -->
<g id="edge10" class="edge">
<title>fire&#45;&gt;paper</title>
<path fill="none" stroke="#bc8989" stroke-width="2" d="M224.47,-185.54C211.75,-194.79 196.71,-205.72 183.15,-215.57"/>
<polygon fill="#bc8989" stroke="#bc8989" stroke-width="2" points="182.53,-212.14 176.5,-220.85 186.65,-217.81 182.53,-212.14"/>
</g>
</g>
</svg>
